<?xml version="1.0" encoding="UTF-8"?>
<!DOCTYPE svg PUBLIC "-//W3C//DTD SVG 1.1//EN" "http://www.w3.org/Graphics/SVG/1.1/DTD/svg11.dtd">
<svg xmlns="http://www.w3.org/2000/svg" version="1.1" width="307px" height="276px" style="shape-rendering:geometricPrecision; text-rendering:geometricPrecision; image-rendering:optimizeQuality; fill-rule:evenodd; clip-rule:evenodd" xmlns:xlink="http://www.w3.org/1999/xlink">
<g><path style="opacity:1" fill="#fffdfc" d="M -0.5,-0.5 C 101.833,-0.5 204.167,-0.5 306.5,-0.5C 306.5,1.5 306.5,3.5 306.5,5.5C 210.728,-0.915442 130.728,31.4179 66.5,102.5C 66.6667,102.833 66.8333,103.167 67,103.5C 120.101,48.6792 184.934,22.8459 261.5,26C 276.754,28.0839 291.754,31.2506 306.5,35.5C 306.5,39.5 306.5,43.5 306.5,47.5C 254.415,30.6329 203.415,33.4663 153.5,56C 101.841,80.1586 61.8409,116.992 33.5,166.5C 49.1897,170.753 64.8564,175.587 80.5,181C 91.325,185.913 101.992,191.08 112.5,196.5C 144.908,188.336 177.241,188.503 209.5,197C 220.555,201.027 230.888,206.36 240.5,213C 254.833,226 268.5,239.667 281.5,254C 289.176,260.504 297.51,266.004 306.5,270.5C 306.5,272.167 306.5,273.833 306.5,275.5C 301.5,275.5 296.5,275.5 291.5,275.5C 274.812,263.984 260.145,250.15 247.5,234C 223.787,211.491 195.453,200.658 162.5,201.5C 154.155,201.81 145.822,202.31 137.5,203C 132.995,203.263 128.661,204.263 124.5,206C 148.989,224.48 167.656,247.646 180.5,275.5C 176.167,275.5 171.833,275.5 167.5,275.5C 154.891,247.222 135.224,225.222 108.5,209.5C 75.4917,219.502 45.4917,235.002 18.5,256C 13,261.5 7.5,267 2,272.5C 1.51722,273.448 1.35055,274.448 1.5,275.5C 0.833333,275.5 0.166667,275.5 -0.5,275.5C -0.5,183.5 -0.5,91.5 -0.5,-0.5 Z"/></g>
<g><path style="opacity:1" fill="#f37034" d="M 306.5,5.5 C 306.5,15.5 306.5,25.5 306.5,35.5C 291.754,31.2506 276.754,28.0839 261.5,26C 184.934,22.8459 120.101,48.6792 67,103.5C 66.8333,103.167 66.6667,102.833 66.5,102.5C 130.728,31.4179 210.728,-0.915442 306.5,5.5 Z"/></g>
<g><path style="opacity:1" fill="#f36e31" d="M 306.5,47.5 C 306.5,121.833 306.5,196.167 306.5,270.5C 297.51,266.004 289.176,260.504 281.5,254C 268.5,239.667 254.833,226 240.5,213C 230.888,206.36 220.555,201.027 209.5,197C 177.241,188.503 144.908,188.336 112.5,196.5C 101.992,191.08 91.325,185.913 80.5,181C 64.8564,175.587 49.1897,170.753 33.5,166.5C 61.8409,116.992 101.841,80.1586 153.5,56C 203.415,33.4663 254.415,30.6329 306.5,47.5 Z"/></g>
<g><path style="opacity:1" fill="#f36f32" d="M 26.5,178.5 C 51.1393,181.88 74.4727,189.38 96.5,201C 67.8123,211.342 41.1456,225.342 16.5,243C 12.7614,246.617 8.92806,250.117 5,253.5C 4.58599,248.47 4.91932,243.47 6,238.5C 10.5512,217.679 17.3845,197.679 26.5,178.5 Z"/></g>
<g><path style="opacity:1" fill="#f36e31" d="M 291.5,275.5 C 254.5,275.5 217.5,275.5 180.5,275.5C 167.656,247.646 148.989,224.48 124.5,206C 128.661,204.263 132.995,203.263 137.5,203C 145.822,202.31 154.155,201.81 162.5,201.5C 195.453,200.658 223.787,211.491 247.5,234C 260.145,250.15 274.812,263.984 291.5,275.5 Z"/></g>
<g><path style="opacity:1" fill="#f36e31" d="M 167.5,275.5 C 112.167,275.5 56.8333,275.5 1.5,275.5C 1.35055,274.448 1.51722,273.448 2,272.5C 7.5,267 13,261.5 18.5,256C 45.4917,235.002 75.4917,219.502 108.5,209.5C 135.224,225.222 154.891,247.222 167.5,275.5 Z"/></g>
</svg>
