<?xml version="1.0" encoding="UTF-8"?>
<!DOCTYPE svg PUBLIC "-//W3C//DTD SVG 1.1//EN" "http://www.w3.org/Graphics/SVG/1.1/DTD/svg11.dtd">
<svg xmlns="http://www.w3.org/2000/svg" version="1.1" width="442px" height="282px" style="shape-rendering:geometricPrecision; text-rendering:geometricPrecision; image-rendering:optimizeQuality; fill-rule:evenodd; clip-rule:evenodd" xmlns:xlink="http://www.w3.org/1999/xlink">
<g><path style="opacity:1" fill="#f36e31" d="M -0.5,-0.5 C 68.8333,-0.5 138.167,-0.5 207.5,-0.5C 201.736,22.3639 191.236,42.6972 176,60.5C 148.005,91.1219 114.171,112.955 74.5,126C 61.4276,130.013 48.4276,133.846 35.5,137.5C 23.6876,140.469 11.6876,142.135 -0.5,142.5C -0.5,94.8333 -0.5,47.1667 -0.5,-0.5 Z"/></g>
<g><path style="opacity:1" fill="#f69447" d="M 207.5,-0.5 C 216.5,-0.5 225.5,-0.5 234.5,-0.5C 247.943,20.1635 254.943,42.8302 255.5,67.5C 255.566,77.9756 254.399,88.3089 252,98.5C 247.667,109.5 243.333,120.5 239,131.5C 231.081,154.081 230.581,176.748 237.5,199.5C 227.12,193.955 217.12,187.788 207.5,181C 191.738,166.279 174.071,154.279 154.5,145C 126.63,133.39 97.6304,129.39 67.5,133C 56.8136,134.438 46.1469,135.938 35.5,137.5C 48.4276,133.846 61.4276,130.013 74.5,126C 114.171,112.955 148.005,91.1219 176,60.5C 191.236,42.6972 201.736,22.3639 207.5,-0.5 Z"/></g>
<g><path style="opacity:1" fill="#b0ba66" d="M 234.5,-0.5 C 293.167,-0.5 351.833,-0.5 410.5,-0.5C 437.154,44.7287 443.654,92.7287 430,143.5C 414.933,188.905 383.766,215.071 336.5,222C 301.644,224.463 268.977,217.297 238.5,200.5C 237.833,200.5 237.5,200.167 237.5,199.5C 230.581,176.748 231.081,154.081 239,131.5C 243.333,120.5 247.667,109.5 252,98.5C 254.399,88.3089 255.566,77.9756 255.5,67.5C 254.943,42.8302 247.943,20.1635 234.5,-0.5 Z"/></g>
<g><path style="opacity:1" fill="#9faa5c" d="M 410.5,-0.5 C 420.833,-0.5 431.167,-0.5 441.5,-0.5C 441.5,83.1667 441.5,166.833 441.5,250.5C 421.729,270.32 397.729,279.987 369.5,279.5C 347.809,279.077 327.143,274.244 307.5,265C 281.579,254.726 260.745,238.226 245,215.5C 242.271,210.712 240.104,205.712 238.5,200.5C 268.977,217.297 301.644,224.463 336.5,222C 383.766,215.071 414.933,188.905 430,143.5C 443.654,92.7287 437.154,44.7287 410.5,-0.5 Z"/></g>
<g><path style="opacity:1" fill="#fefefe" d="M 237.5,199.5 C 237.5,200.167 237.833,200.5 238.5,200.5C 240.104,205.712 242.271,210.712 245,215.5C 260.745,238.226 281.579,254.726 307.5,265C 327.143,274.244 347.809,279.077 369.5,279.5C 397.729,279.987 421.729,270.32 441.5,250.5C 441.5,260.833 441.5,271.167 441.5,281.5C 294.167,281.5 146.833,281.5 -0.5,281.5C -0.5,250.833 -0.5,220.167 -0.5,189.5C 7.57187,202.624 16.4052,215.291 26,227.5C 29.7176,231.273 33.8842,234.44 38.5,237C 40.5,237.667 42.5,237.667 44.5,237C 52.111,232.722 57.611,226.555 61,218.5C 69.354,202.435 75.5207,185.602 79.5,168C 79.5527,164.106 78.2193,160.773 75.5,158C 71.4166,155.895 67.0833,154.562 62.5,154C 40.9892,152.716 19.9892,155.216 -0.5,161.5C -0.5,155.167 -0.5,148.833 -0.5,142.5C 11.6876,142.135 23.6876,140.469 35.5,137.5C 46.1469,135.938 56.8136,134.438 67.5,133C 97.6304,129.39 126.63,133.39 154.5,145C 174.071,154.279 191.738,166.279 207.5,181C 217.12,187.788 227.12,193.955 237.5,199.5 Z"/></g>
<g><path style="opacity:1" fill="#bcbdc0" d="M -0.5,189.5 C -0.5,180.167 -0.5,170.833 -0.5,161.5C 19.9892,155.216 40.9892,152.716 62.5,154C 67.0833,154.562 71.4166,155.895 75.5,158C 78.2193,160.773 79.5527,164.106 79.5,168C 75.5207,185.602 69.354,202.435 61,218.5C 57.611,226.555 52.111,232.722 44.5,237C 42.5,237.667 40.5,237.667 38.5,237C 33.8842,234.44 29.7176,231.273 26,227.5C 16.4052,215.291 7.57187,202.624 -0.5,189.5 Z"/></g>
<g><path style="opacity:1" fill="#d1d2d4" d="M 82.5,198.5 C 86.7189,197.979 90.3855,199.146 93.5,202C 99.7154,209.214 105.549,216.714 111,224.5C 114.428,229 115.762,234 115,239.5C 113.833,240.667 112.667,241.833 111.5,243C 97.179,247.623 82.5123,249.29 67.5,248C 65.714,247.215 64.214,246.049 63,244.5C 62.3333,241.167 62.3333,237.833 63,234.5C 66.1762,225.146 70.1762,216.146 75,207.5C 77.0526,204.019 79.5526,201.019 82.5,198.5 Z"/></g>
</svg>
