<?xml version="1.0" encoding="UTF-8"?>
<!DOCTYPE svg PUBLIC "-//W3C//DTD SVG 1.1//EN" "http://www.w3.org/Graphics/SVG/1.1/DTD/svg11.dtd">
<svg xmlns="http://www.w3.org/2000/svg" version="1.1" width="228px" height="366px" style="shape-rendering:geometricPrecision; text-rendering:geometricPrecision; image-rendering:optimizeQuality; fill-rule:evenodd; clip-rule:evenodd" xmlns:xlink="http://www.w3.org/1999/xlink">
<g><path style="opacity:1" fill="#f8f7f6" d="M -0.5,-0.5 C 75.5,-0.5 151.5,-0.5 227.5,-0.5C 227.5,10.1667 227.5,20.8333 227.5,31.5C 204.76,7.4183 176.76,-2.0817 143.5,3C 81.7549,14.0926 38.2549,48.2592 13,105.5C -1.54243,146.482 -0.709101,187.148 15.5,227.5C 19.5208,237.875 24.3541,247.875 30,257.5C 30.6543,258.696 31.1543,258.696 31.5,257.5C 25.2933,245.847 20.2933,233.847 16.5,221.5C 0.511936,146.656 26.1786,91.489 93.5,56C 143.142,35.0125 187.808,42.5125 227.5,78.5C 227.5,82.8333 227.5,87.1667 227.5,91.5C 200.549,60.4094 166.549,47.9094 125.5,54C 76.5538,66.2791 43.3871,96.1124 26,143.5C 13.6159,203.306 29.1159,254.639 72.5,297.5C 84.8438,279.991 100.01,265.324 118,253.5C 122.891,213.172 143.725,184.672 180.5,168C 197.161,163.729 212.828,157.229 227.5,148.5C 227.5,151.833 227.5,155.167 227.5,158.5C 213.131,165.793 198.131,171.626 182.5,176C 153.591,189.781 135.924,212.447 129.5,244C 129.667,245.167 129.833,246.333 130,247.5C 160.407,231.455 192.907,225.121 227.5,228.5C 227.5,231.167 227.5,233.833 227.5,236.5C 192.158,232.901 159.158,239.901 128.5,257.5C 124.349,288.421 130.016,317.254 145.5,344C 171.926,353.882 199.26,358.715 227.5,358.5C 227.5,360.833 227.5,363.167 227.5,365.5C 151.5,365.5 75.5,365.5 -0.5,365.5C -0.5,243.5 -0.5,121.5 -0.5,-0.5 Z"/></g>
<g><path style="opacity:1" fill="#e96932" d="M 227.5,31.5 C 227.5,47.1667 227.5,62.8333 227.5,78.5C 187.808,42.5125 143.142,35.0125 93.5,56C 26.1786,91.489 0.511936,146.656 16.5,221.5C 16.7947,223.735 16.4614,225.735 15.5,227.5C -0.709101,187.148 -1.54243,146.482 13,105.5C 38.2549,48.2592 81.7549,14.0926 143.5,3C 176.76,-2.0817 204.76,7.4183 227.5,31.5 Z"/></g>
<g><path style="opacity:1" fill="#e96831" d="M 227.5,91.5 C 227.5,110.5 227.5,129.5 227.5,148.5C 212.828,157.229 197.161,163.729 180.5,168C 143.725,184.672 122.891,213.172 118,253.5C 100.01,265.324 84.8438,279.991 72.5,297.5C 29.1159,254.639 13.6159,203.306 26,143.5C 43.3871,96.1124 76.5538,66.2791 125.5,54C 166.549,47.9094 200.549,60.4094 227.5,91.5 Z"/></g>
<g><path style="opacity:1" fill="#e96932" d="M 227.5,158.5 C 227.5,181.833 227.5,205.167 227.5,228.5C 192.907,225.121 160.407,231.455 130,247.5C 129.833,246.333 129.667,245.167 129.5,244C 135.924,212.447 153.591,189.781 182.5,176C 198.131,171.626 213.131,165.793 227.5,158.5 Z"/></g>
<g><path style="opacity:1" fill="#ec7a4b" d="M 16.5,221.5 C 20.2933,233.847 25.2933,245.847 31.5,257.5C 31.1543,258.696 30.6543,258.696 30,257.5C 24.3541,247.875 19.5208,237.875 15.5,227.5C 16.4614,225.735 16.7947,223.735 16.5,221.5 Z"/></g>
<g><path style="opacity:1" fill="#e96831" d="M 227.5,236.5 C 227.5,277.167 227.5,317.833 227.5,358.5C 199.26,358.715 171.926,353.882 145.5,344C 130.016,317.254 124.349,288.421 128.5,257.5C 159.158,239.901 192.158,232.901 227.5,236.5 Z"/></g>
<g><path style="opacity:1" fill="#e96933" d="M 116.5,264.5 C 116.904,284.814 120.071,304.814 126,324.5C 128.267,328.933 129.767,333.266 130.5,337.5C 111.493,329.315 94.4934,318.149 79.5,304C 89.9381,289.062 102.271,275.895 116.5,264.5 Z"/></g>
</svg>
