<?xml version="1.0" encoding="UTF-8"?>
<!DOCTYPE svg PUBLIC "-//W3C//DTD SVG 1.1//EN" "http://www.w3.org/Graphics/SVG/1.1/DTD/svg11.dtd">
<svg xmlns="http://www.w3.org/2000/svg" version="1.1" width="442px" height="535px" style="shape-rendering:geometricPrecision; text-rendering:geometricPrecision; image-rendering:optimizeQuality; fill-rule:evenodd; clip-rule:evenodd" xmlns:xlink="http://www.w3.org/1999/xlink">
<g><path style="opacity:1" fill="#b0bb67" d="M -0.5,-0.5 C 111.5,-0.5 223.5,-0.5 335.5,-0.5C 368.987,23.4956 393.82,54.4956 410,92.5C 426.202,141.093 421.202,187.426 395,231.5C 369.3,269.528 335.8,298.694 294.5,319C 292.5,319.667 290.5,319.667 288.5,319C 260.722,307.562 237.889,289.729 220,265.5C 210.918,253.009 202.585,240.009 195,226.5C 166.491,186.722 127.991,162.222 79.5,153C 53.0333,147.849 26.3666,146.349 -0.5,148.5C -0.5,98.8333 -0.5,49.1667 -0.5,-0.5 Z"/></g>
<g><path style="opacity:1" fill="#fefefe" d="M 335.5,-0.5 C 344.167,-0.5 352.833,-0.5 361.5,-0.5C 394.052,26.9008 416.885,60.9008 430,101.5C 444.012,166.793 428.678,224.127 384,273.5C 364.463,293.717 342.63,310.884 318.5,325C 350.237,326.233 380.237,319.566 408.5,305C 419.554,298.809 430.554,292.643 441.5,286.5C 441.5,369.167 441.5,451.833 441.5,534.5C 302.5,534.5 163.5,534.5 24.5,534.5C 56.2568,469.138 70.7568,400.138 68,327.5C 63.7919,268.109 40.9585,217.442 -0.5,175.5C -0.5,166.5 -0.5,157.5 -0.5,148.5C 26.3666,146.349 53.0333,147.849 79.5,153C 127.991,162.222 166.491,186.722 195,226.5C 202.585,240.009 210.918,253.009 220,265.5C 237.889,289.729 260.722,307.562 288.5,319C 290.5,319.667 292.5,319.667 294.5,319C 335.8,298.694 369.3,269.528 395,231.5C 421.202,187.426 426.202,141.093 410,92.5C 393.82,54.4956 368.987,23.4956 335.5,-0.5 Z"/></g>
<g><path style="opacity:1" fill="#b0bb67" d="M 361.5,-0.5 C 388.167,-0.5 414.833,-0.5 441.5,-0.5C 441.5,95.1667 441.5,190.833 441.5,286.5C 430.554,292.643 419.554,298.809 408.5,305C 380.237,319.566 350.237,326.233 318.5,325C 342.63,310.884 364.463,293.717 384,273.5C 428.678,224.127 444.012,166.793 430,101.5C 416.885,60.9008 394.052,26.9008 361.5,-0.5 Z"/></g>
<g><path style="opacity:1" fill="#d1d8a8" d="M 38.5,164.5 C 29.9832,164.174 21.6499,164.507 13.5,165.5C 12.9569,165.44 12.6236,165.107 12.5,164.5C 21.3245,163.179 29.9912,163.179 38.5,164.5 Z"/></g>
<g><path style="opacity:1" fill="#b0bb67" d="M 38.5,164.5 C 82.2111,165.567 121.211,179.4 155.5,206C 162.365,212.531 168.865,219.364 175,226.5C 184.394,240.231 193.394,254.231 202,268.5C 219.88,294.386 242.713,314.552 270.5,329C 263.698,332.381 256.698,335.381 249.5,338C 228.833,344.333 208.167,350.667 187.5,357C 140.565,374.948 102.731,404.448 74,445.5C 76.5481,429.88 79.2147,414.213 82,398.5C 88.6933,350.516 84.6933,303.516 70,257.5C 57.9926,222.455 39.1592,191.788 13.5,165.5C 21.6499,164.507 29.9832,164.174 38.5,164.5 Z"/></g>
<g><path style="opacity:1" fill="#b0bb67" d="M -0.5,175.5 C 40.9585,217.442 63.7919,268.109 68,327.5C 70.7568,400.138 56.2568,469.138 24.5,534.5C 16.1667,534.5 7.83333,534.5 -0.5,534.5C -0.5,414.833 -0.5,295.167 -0.5,175.5 Z"/></g>
</svg>
