<?xml version="1.0" encoding="UTF-8"?>
<!DOCTYPE svg PUBLIC "-//W3C//DTD SVG 1.1//EN" "http://www.w3.org/Graphics/SVG/1.1/DTD/svg11.dtd">
<svg xmlns="http://www.w3.org/2000/svg" version="1.1" width="884px" height="469px" style="shape-rendering:geometricPrecision; text-rendering:geometricPrecision; image-rendering:optimizeQuality; fill-rule:evenodd; clip-rule:evenodd" xmlns:xlink="http://www.w3.org/1999/xlink">
<g><path style="opacity:1" fill="#f8f8f8" d="M -0.5,-0.5 C 294.167,-0.5 588.833,-0.5 883.5,-0.5C 883.5,155.833 883.5,312.167 883.5,468.5C 867.5,468.5 851.5,468.5 835.5,468.5C 871.08,431.945 886.58,387.945 882,336.5C 874.352,267.228 847.686,206.562 802,154.5C 752.928,100.813 694.095,61.3134 625.5,36C 520.43,-1.5446 413.097,-9.5446 303.5,12C 282.937,16.7237 262.604,22.2237 242.5,28.5C 238.82,29.5596 235.154,30.7262 231.5,32C 235.43,32.0733 239.097,31.24 242.5,29.5C 317.647,9.82924 393.647,5.9959 470.5,18C 549.592,30.7725 619.259,63.1058 679.5,115C 720.655,152.137 750.155,196.971 768,249.5C 789.672,341.012 762.505,414.012 686.5,468.5C 674.167,468.5 661.833,468.5 649.5,468.5C 690.639,446.526 721.472,414.526 742,372.5C 759.63,328.333 759.964,284 743,239.5C 712.947,169.778 664.447,116.945 597.5,81C 529.488,45.7475 457.154,28.9141 380.5,30.5C 292.962,30.9607 210.629,51.7941 133.5,93C 162.26,115.092 188.093,140.259 211,168.5C 218.892,179.394 226.392,190.561 233.5,202C 280.355,213.05 323.355,232.384 362.5,260C 409.404,295.614 436.904,342.781 445,401.5C 451.628,425.406 461.461,447.74 474.5,468.5C 466.5,468.5 458.5,468.5 450.5,468.5C 443.541,455.579 437.374,442.245 432,428.5C 424.787,403.213 417.787,377.88 411,352.5C 399.133,325.315 381.966,302.148 359.5,283C 325.214,256.272 287.047,236.772 245,224.5C 252.954,243.351 259.954,262.684 266,282.5C 276.405,332.785 274.072,382.452 259,431.5C 254.791,443.961 250.291,456.294 245.5,468.5C 238.167,468.5 230.833,468.5 223.5,468.5C 238.125,435.67 247.292,401.336 251,365.5C 254.676,328.242 249.676,292.242 236,257.5C 230.775,244.717 225.275,232.05 219.5,219.5C 217.78,218.066 215.78,217.233 213.5,217C 158.94,206.152 103.94,202.819 48.5,207C 31.92,209.083 15.5867,212.25 -0.5,216.5C -0.5,144.167 -0.5,71.8333 -0.5,-0.5 Z"/></g>
<g><path style="opacity:1" fill="#b8bd69" d="M 835.5,468.5 C 785.833,468.5 736.167,468.5 686.5,468.5C 762.505,414.012 789.672,341.012 768,249.5C 750.155,196.971 720.655,152.137 679.5,115C 619.259,63.1058 549.592,30.7725 470.5,18C 393.647,5.9959 317.647,9.82924 242.5,29.5C 242.5,29.1667 242.5,28.8333 242.5,28.5C 262.604,22.2237 282.937,16.7237 303.5,12C 413.097,-9.5446 520.43,-1.5446 625.5,36C 694.095,61.3134 752.928,100.813 802,154.5C 847.686,206.562 874.352,267.228 882,336.5C 886.58,387.945 871.08,431.945 835.5,468.5 Z"/></g>
<g><path style="opacity:1" fill="#d6d9ac" d="M 242.5,28.5 C 242.5,28.8333 242.5,29.1667 242.5,29.5C 239.097,31.24 235.43,32.0733 231.5,32C 235.154,30.7262 238.82,29.5596 242.5,28.5 Z"/></g>
<g><path style="opacity:1" fill="#b8bd69" d="M 649.5,468.5 C 591.167,468.5 532.833,468.5 474.5,468.5C 461.461,447.74 451.628,425.406 445,401.5C 436.904,342.781 409.404,295.614 362.5,260C 323.355,232.384 280.355,213.05 233.5,202C 226.392,190.561 218.892,179.394 211,168.5C 188.093,140.259 162.26,115.092 133.5,93C 210.629,51.7941 292.962,30.9607 380.5,30.5C 457.154,28.9141 529.488,45.7475 597.5,81C 664.447,116.945 712.947,169.778 743,239.5C 759.964,284 759.63,328.333 742,372.5C 721.472,414.526 690.639,446.526 649.5,468.5 Z"/></g>
<g><path style="opacity:1" fill="#b8bd6a" d="M 113.5,103.5 C 149.491,128.324 179.991,158.658 205,194.5C 205.688,195.332 205.521,195.998 204.5,196.5C 147.504,185.826 90.1707,183.659 32.5,190C 24.6934,191.622 16.8601,193.122 9,194.5C 8.5,194.167 8,193.833 7.5,193.5C 38.3481,157.967 73.6814,127.967 113.5,103.5 Z"/></g>
<g><path style="opacity:1" fill="#b8bd69" d="M 223.5,468.5 C 148.833,468.5 74.1667,468.5 -0.5,468.5C -0.5,384.5 -0.5,300.5 -0.5,216.5C 15.5867,212.25 31.92,209.083 48.5,207C 103.94,202.819 158.94,206.152 213.5,217C 215.78,217.233 217.78,218.066 219.5,219.5C 225.275,232.05 230.775,244.717 236,257.5C 249.676,292.242 254.676,328.242 251,365.5C 247.292,401.336 238.125,435.67 223.5,468.5 Z"/></g>
<g><path style="opacity:1" fill="#b8bd69" d="M 450.5,468.5 C 382.167,468.5 313.833,468.5 245.5,468.5C 250.291,456.294 254.791,443.961 259,431.5C 274.072,382.452 276.405,332.785 266,282.5C 259.954,262.684 252.954,243.351 245,224.5C 287.047,236.772 325.214,256.272 359.5,283C 381.966,302.148 399.133,325.315 411,352.5C 417.787,377.88 424.787,403.213 432,428.5C 437.374,442.245 443.541,455.579 450.5,468.5 Z"/></g>
</svg>
