<?xml version="1.0" encoding="UTF-8"?>
<!DOCTYPE svg PUBLIC "-//W3C//DTD SVG 1.1//EN" "http://www.w3.org/Graphics/SVG/1.1/DTD/svg11.dtd">
<svg xmlns="http://www.w3.org/2000/svg" version="1.1" width="371px" height="251px" style="shape-rendering:geometricPrecision; text-rendering:geometricPrecision; image-rendering:optimizeQuality; fill-rule:evenodd; clip-rule:evenodd" xmlns:xlink="http://www.w3.org/1999/xlink">
<g><path style="opacity:1" fill="#b0bb67" d="M -0.5,-0.5 C 33.1667,-0.5 66.8333,-0.5 100.5,-0.5C 126.9,25.6819 158.9,38.6819 196.5,38.5C 218.034,38.1611 239.201,35.1611 260,29.5C 288.124,44.3189 317.957,54.1523 349.5,59C 318.447,117.719 272.781,161.052 212.5,189C 157.143,213.202 100.81,215.868 43.5,197C 27.977,190.614 13.3104,182.78 -0.5,173.5C -0.5,115.5 -0.5,57.5 -0.5,-0.5 Z"/></g>
<g><path style="opacity:1" fill="#fefefd" d="M 100.5,-0.5 C 106.833,-0.5 113.167,-0.5 119.5,-0.5C 136.525,13.6896 156.191,22.1896 178.5,25C 201.799,27.7135 224.799,26.0468 247.5,20C 239.243,13.3857 231.243,6.55234 223.5,-0.5C 229.833,-0.5 236.167,-0.5 242.5,-0.5C 248.889,5.54514 255.889,10.8785 263.5,15.5C 276.512,10.7265 289.178,5.39317 301.5,-0.5C 310.5,-0.5 319.5,-0.5 328.5,-0.5C 312.078,8.70954 295.078,16.8762 277.5,24C 302.066,36.8049 328.066,43.9716 355.5,45.5C 361.318,32.3668 366.318,19.0335 370.5,5.5C 370.5,87.1667 370.5,168.833 370.5,250.5C 246.833,250.5 123.167,250.5 -0.5,250.5C -0.5,245.5 -0.5,240.5 -0.5,235.5C 36.024,247.451 73.3573,250.618 111.5,245C 193.637,232.783 260.97,194.95 313.5,131.5C 276.355,170.921 231.688,198.421 179.5,214C 115.729,231.294 55.7287,222.794 -0.5,188.5C -0.5,183.5 -0.5,178.5 -0.5,173.5C 13.3104,182.78 27.977,190.614 43.5,197C 100.81,215.868 157.143,213.202 212.5,189C 272.781,161.052 318.447,117.719 349.5,59C 317.957,54.1523 288.124,44.3189 260,29.5C 239.201,35.1611 218.034,38.1611 196.5,38.5C 158.9,38.6819 126.9,25.6819 100.5,-0.5 Z"/></g>
<g><path style="opacity:1" fill="#b1bb68" d="M 119.5,-0.5 C 154.167,-0.5 188.833,-0.5 223.5,-0.5C 231.243,6.55234 239.243,13.3857 247.5,20C 224.799,26.0468 201.799,27.7135 178.5,25C 156.191,22.1896 136.525,13.6896 119.5,-0.5 Z"/></g>
<g><path style="opacity:1" fill="#b0bb68" d="M 242.5,-0.5 C 262.167,-0.5 281.833,-0.5 301.5,-0.5C 289.178,5.39317 276.512,10.7265 263.5,15.5C 255.889,10.8785 248.889,5.54514 242.5,-0.5 Z"/></g>
<g><path style="opacity:1" fill="#b0bb68" d="M 328.5,-0.5 C 342.5,-0.5 356.5,-0.5 370.5,-0.5C 370.5,1.5 370.5,3.5 370.5,5.5C 366.318,19.0335 361.318,32.3668 355.5,45.5C 328.066,43.9716 302.066,36.8049 277.5,24C 295.078,16.8762 312.078,8.70954 328.5,-0.5 Z"/></g>
<g><path style="opacity:1" fill="#d8ddb4" d="M 313.5,131.5 C 314.713,128.775 316.546,126.441 319,124.5C 318.228,127.464 316.395,129.798 313.5,131.5 Z"/></g>
<g><path style="opacity:1" fill="#b0bb68" d="M 313.5,131.5 C 260.97,194.95 193.637,232.783 111.5,245C 73.3573,250.618 36.024,247.451 -0.5,235.5C -0.5,219.833 -0.5,204.167 -0.5,188.5C 55.7287,222.794 115.729,231.294 179.5,214C 231.688,198.421 276.355,170.921 313.5,131.5 Z"/></g>
</svg>
